<svg width="73" height="37" viewBox="0 0 73 37" fill="none" xmlns="http://www.w3.org/2000/svg">
<path d="M50.7063 14.786C50.6437 22.1792 44.5996 28.1215 37.2064 28.0588L37.2079 28.0604C29.8147 28.0025 23.8685 21.9615 23.9272 14.5683C23.9272 14.544 23.9274 14.5197 23.9276 14.4955C23.9278 14.4712 23.928 14.4469 23.928 14.4227C23.9593 12.5599 24.3822 10.7245 25.1683 9.03551C26.3828 9.6032 27.5307 10.3024 28.5916 11.1215C29.8609 12.0885 30.9963 13.2192 31.9688 14.4845C32.4605 15.125 32.8951 15.8078 33.267 16.5243C33.2263 16.5368 33.1864 16.5525 33.148 16.5705C33.0861 16.601 33.0345 16.6386 33.0345 16.684C33.0266 16.7631 33.0768 16.8359 33.1535 16.8563C33.1535 16.8563 33.1519 17.0841 33.3336 17.0998C33.3242 17.1068 33.3704 17.2642 33.5051 17.265C33.5035 17.2619 33.5168 17.3488 33.6679 17.3903C33.7478 17.5782 33.8222 17.7669 33.8926 17.9564C33.8739 17.9587 33.8559 17.9627 33.8378 17.9689C33.729 18.0112 33.5967 18.1193 33.6538 18.2657C33.675 18.3205 33.7071 18.3753 33.7619 18.3847C33.7509 18.4928 33.8128 18.5953 33.9146 18.6353C33.9357 18.7402 34.0328 18.8122 34.1393 18.8028C34.155 18.8271 34.1738 18.8483 34.1949 18.867C34.2395 19.0221 34.2818 19.1771 34.3186 19.3322C34.3398 19.4159 34.4134 19.4762 34.4995 19.4809H34.5449C34.5958 19.4684 34.6404 19.4371 34.6678 19.3924C34.6952 19.3494 34.7039 19.2961 34.6905 19.2468C34.6608 19.1207 34.6271 18.9947 34.5935 18.871C34.6593 18.84 34.7215 18.8045 34.7836 18.7691C34.8582 18.7267 34.9325 18.6843 35.0124 18.6501C35.0703 18.6267 35.1322 18.6118 35.1948 18.6063L35.053 19.143C35.0174 19.2776 34.9756 19.4359 34.9435 19.5201C34.9272 19.5621 34.9149 19.5861 34.9035 19.6085C34.8896 19.6358 34.8769 19.6607 34.8597 19.7127C34.8182 19.8599 34.9356 19.9515 35.039 20.0181L35.0554 20.0275L35.0233 20.1896C34.9677 20.4605 34.8918 20.7275 34.7947 20.9867C34.7917 20.9936 34.7874 21.0011 34.7833 21.0083C34.7766 21.0199 34.7704 21.0308 34.7704 21.0376C34.649 21.2208 34.5018 21.386 34.3335 21.5277C34.2364 21.6178 34.1307 21.6969 34.0164 21.7634C33.9733 21.7924 33.9263 21.8167 33.8778 21.8355L33.7267 21.8816L33.6319 21.9044C33.5716 21.9169 33.5105 21.9255 33.4495 21.9302C33.3626 21.9341 33.2756 21.9294 33.1895 21.9153C33.1715 21.9106 33.1527 21.9106 33.1347 21.9145C33.1269 21.9177 33.119 21.9216 33.1128 21.9271C33.083 21.9537 33.0666 21.9913 33.0666 22.0304C33.0634 22.0672 33.0705 22.104 33.0854 22.1377C33.0971 22.162 33.1128 22.1847 33.1323 22.2035C32.1998 22.2277 31.2672 22.1299 30.3605 21.9106C30.3479 21.9091 31.9617 23.1353 34.7039 23.5213L34.6964 23.5373C34.6667 23.6008 34.637 23.6646 34.6146 23.7296C34.5869 23.8381 34.6723 23.9025 34.7487 23.9602L34.7657 23.9731L34.8307 24.0169C34.7782 24.1915 34.7117 24.3622 34.6318 24.5267C34.5128 24.7373 34.3617 24.9276 34.1832 25.0912C34.1283 25.1413 34.0602 25.1993 33.9451 25.2948C33.83 25.3903 33.6992 25.5007 33.6006 25.5908C33.4941 25.6941 33.3704 25.7787 33.2349 25.8406C33.1668 25.8695 33.0924 25.8852 33.018 25.886C32.9765 25.8836 32.935 25.8781 32.8943 25.8703C32.8364 25.8625 32.7816 25.8641 32.7502 25.9181C32.7197 25.9666 32.7119 26.0269 32.7291 26.0817C32.7737 26.1734 32.8646 26.2329 32.9663 26.2368C33 26.2391 33.0329 26.2462 33.0642 26.2579C33.085 26.2678 33.1037 26.2817 33.1225 26.2956C33.135 26.3048 33.1474 26.314 33.1605 26.3221C33.3586 26.4176 33.5881 26.4231 33.7901 26.3362C33.9984 26.2532 34.2012 26.1593 34.3985 26.0536C34.5629 25.9893 34.7383 25.9596 34.9145 25.9666C35.0014 25.9784 35.0899 25.9596 35.1643 25.9142C35.2261 25.8539 35.2621 25.7717 35.2645 25.6855C35.2755 25.5986 35.2661 25.5101 35.2355 25.4271C35.1452 25.1951 35.2229 25.0305 35.3515 24.7577L35.3538 24.753V24.7365C35.4375 24.5729 35.5409 24.4202 35.6631 24.2824L35.7013 24.2864C35.7504 24.2918 35.8079 24.298 35.8447 24.298C35.855 24.2983 35.8656 24.2987 35.8763 24.2991C35.9701 24.3027 36.0762 24.3068 36.1148 24.2056C36.1228 24.1834 36.1277 24.1604 36.1325 24.1375C36.1366 24.1177 36.1408 24.098 36.1469 24.0788C36.1853 23.9284 36.2323 23.7797 36.2871 23.634C37.9769 23.6356 39.647 23.2684 41.181 22.559C42.6781 21.8676 44.0147 20.8716 45.1046 19.6336C46.1695 18.4333 46.9486 17.0082 47.384 15.4648C48.102 12.8457 47.7003 9.92501 46.4326 7.5376C45.2691 5.35534 43.2724 3.68517 41.0103 2.73146C40.2351 2.40494 39.4262 2.16378 38.5986 2.01188C36.4743 1.63446 34.2889 1.81142 32.253 2.52631C32.0432 2.59835 31.8365 2.67666 31.6321 2.75966C30.9454 3.02667 30.2845 3.35318 29.655 3.73607C29.5947 3.77366 29.5712 3.75565 29.5712 3.75565C31.867 2.1262 34.6185 1.26253 37.4334 1.28602C44.8267 1.34866 50.769 7.39275 50.7063 14.786Z" fill="white"/>
<path d="M33.4063 15.9879C33.0681 15.3811 32.6868 14.8001 32.2639 14.2496L32.2663 14.2512C31.2672 12.967 30.0942 11.827 28.7819 10.8654C27.6911 10.0566 26.526 9.35342 25.3021 8.7646C25.6075 8.14367 25.9614 7.54701 26.3592 6.9801C27.1407 5.8878 28.1508 4.97872 29.3198 4.31707C30.4074 3.68596 31.5984 3.25139 32.8371 3.03215C39.6321 1.88582 43.8612 6.89084 43.775 12.4542C43.7609 13.9098 43.4172 15.3435 42.7696 16.6472C42.4118 17.3488 41.96 17.9987 41.4275 18.5789L41.4299 18.286C41.4275 18.0692 41.4127 17.853 41.3892 17.6377C41.3602 17.3566 41.3077 17.0786 41.2318 16.8062C41.1754 16.6049 41.101 16.4092 41.0086 16.222C40.9436 16.0928 40.8661 15.9707 40.7769 15.8564C40.7432 15.8133 40.708 15.7718 40.6704 15.7319C40.6326 15.6859 40.5945 15.6488 40.5656 15.6206C40.5472 15.6026 40.5325 15.5883 40.5239 15.5776C40.4926 15.4946 40.4683 15.4085 40.4535 15.3208C40.4253 15.2002 40.2193 15.248 40.1387 15.2691C40.1027 15.2777 40.0674 15.291 40.0346 15.3082C40.0299 15.2895 40.0299 15.2699 40.0353 15.2519C40.0792 15.1822 40.1426 15.1274 40.2186 15.0953C40.5357 14.9246 40.7682 14.6309 40.8622 14.2833C40.8927 14.1322 40.9045 13.9771 40.8967 13.8229L40.896 13.8011C40.8924 13.6941 40.8826 13.4039 41.0501 13.5112C41.011 13.3703 40.87 13.2826 40.726 13.31C40.6876 13.1706 40.6124 13.0446 40.5083 12.9443C40.3611 12.8472 40.2186 12.7423 40.0831 12.6296C40.0652 12.6092 40.0477 12.5923 40.0315 12.5765C39.9954 12.5414 39.9649 12.5119 39.9476 12.4628C39.9304 12.5379 39.9476 12.617 39.9954 12.6781C39.7026 12.4667 39.3251 12.4111 38.9845 12.5301L38.938 12.5393L38.8615 12.5545C38.7864 12.5696 38.7116 12.5846 38.6361 12.5982C38.55 12.617 38.463 12.6256 38.3753 12.6233C38.2884 12.617 38.2031 12.599 38.1209 12.57C38.0488 12.5426 37.9862 12.4949 37.94 12.4338C37.9439 12.5716 38.0159 12.6977 38.1318 12.7721C38.1165 12.7698 38.1004 12.769 38.0851 12.7682L38.0841 12.7681C37.864 12.7627 37.6808 12.9365 37.6753 13.1565C37.6763 13.1572 37.6794 13.153 37.6846 13.146C37.7103 13.1118 37.7868 13.0097 37.9071 13.0727C37.8077 13.1581 37.7489 13.281 37.7458 13.4118C37.767 13.5504 37.727 13.6913 37.6354 13.797C37.72 13.7916 37.7975 13.7477 37.846 13.6788L37.8459 13.7139L37.8456 13.7469C37.8454 13.7693 37.8453 13.7917 37.8453 13.8135C37.8547 13.8996 37.8687 13.9842 37.8867 14.0687C37.893 14.1384 37.8633 14.2066 37.8092 14.2504C37.789 14.2696 37.7647 14.29 37.7395 14.3113C37.6577 14.3802 37.5655 14.4579 37.5649 14.5291C37.5822 14.5894 37.6213 14.6411 37.6746 14.674C37.6941 14.6897 37.7106 14.7077 37.7255 14.7273C37.7469 14.7613 37.7308 14.7768 37.7112 14.7956C37.6979 14.8084 37.6829 14.8227 37.6769 14.8455C37.6629 14.8984 37.6986 14.9258 37.7348 14.9535L37.7419 14.959L37.7544 14.97C37.7489 14.9669 37.7161 15.0099 37.7161 15.0099C37.6988 15.0389 37.6988 15.0749 37.7153 15.1047C37.7237 15.1171 37.7405 15.1271 37.7577 15.1373C37.7838 15.1528 37.8108 15.1688 37.8108 15.1947L37.8107 15.2248L37.8104 15.2601L37.8104 15.261C37.8102 15.2843 37.81 15.308 37.81 15.331C37.8288 15.4132 37.886 15.4813 37.9635 15.5142C38.0528 15.5533 38.1483 15.5737 38.2454 15.5745L38.5602 15.5768L38.7582 15.8438C38.6917 15.9018 38.6331 15.9606 38.584 16.0098C38.5655 16.0283 38.5484 16.0455 38.5327 16.0607C38.1663 16.4546 37.6894 16.7286 37.1648 16.8453C37.0051 16.6535 36.7717 16.5376 36.5227 16.5251C36.1876 16.5031 35.8705 16.6785 35.7108 16.9737C35.36 16.9776 35.0139 16.8907 34.7061 16.7216C34.6412 16.6856 34.5809 16.6417 34.5253 16.5924C34.483 16.5446 34.4438 16.4945 34.4078 16.4421C34.335 16.3638 34.241 16.3082 34.1377 16.2831L33.9795 16.2346C33.9623 16.2293 33.9437 16.2239 33.9244 16.2182C33.8772 16.2044 33.8265 16.1895 33.7853 16.175C33.7282 16.1476 33.6812 16.103 33.6499 16.0482C33.6303 16.0221 33.6149 15.994 33.5993 15.9657C33.5906 15.9498 33.5819 15.9339 33.5723 15.9182C33.5575 15.8845 33.5214 15.8658 33.4854 15.872C33.4416 15.8877 33.411 15.9268 33.4063 15.973V15.9879Z" fill="white"/>
<path d="M36.5513 19.0396C36.6506 19.2743 36.7546 19.5201 36.7867 19.6148L36.7914 19.6172C36.8415 19.7651 36.8948 19.9124 36.9535 20.0588C37.02 20.2232 37.096 20.3837 37.1806 20.5395C36.6317 20.8324 36.107 21.1699 35.613 21.5481C35.5103 21.2513 35.6234 20.9506 35.7342 20.6561C35.7535 20.6047 35.7727 20.5536 35.7907 20.5028C35.815 20.4338 35.8424 20.3665 35.8721 20.3015H35.8815C35.8984 20.2996 35.9219 20.2979 35.9477 20.2959C35.9972 20.2922 36.0551 20.2878 36.0875 20.2812C36.0972 20.2792 36.1072 20.2773 36.1173 20.2754C36.217 20.2568 36.3297 20.2357 36.3474 20.112C36.349 20.0909 36.3498 20.0697 36.3482 20.0486C36.3489 19.8899 36.4614 19.2927 36.5127 19.0198L36.522 18.9704L36.5513 19.0396Z" fill="white"/>
<path d="M34.231 17.3942L34.0853 17.3934C34.1378 17.5211 34.1879 17.6503 34.2372 17.7802C34.2458 17.7458 34.267 17.7168 34.2959 17.6972C34.3962 17.6534 34.5121 17.6745 34.5904 17.7505C34.8112 17.9126 35.0852 17.9838 35.3569 17.9494C35.3718 17.8965 35.3863 17.8435 35.4008 17.7904C35.4153 17.7374 35.4298 17.6843 35.4446 17.6315C35.3193 17.5939 35.1941 17.5547 35.0688 17.5117C34.9255 17.4568 34.7783 17.4153 34.6272 17.3879C34.4956 17.3746 34.3625 17.3738 34.2302 17.3848L34.231 17.3942Z" fill="white"/>
<path d="M38.7583 17.8014C38.5148 17.8906 38.2666 17.965 38.0137 18.023C38.2768 18.3894 38.554 18.7551 38.8241 19.1106L39.0042 19.3126C39.0293 19.1466 39.0457 18.9798 39.052 18.8122C39.0614 18.4567 38.9619 18.1075 38.7669 17.8108V17.8014H38.7583Z" fill="white"/>
<path fill-rule="evenodd" clip-rule="evenodd" d="M64.37 33.0607L64.5696 33.1203L64.5563 33.1117C65.3824 33.3552 66.1083 33.6629 66.1028 34.3418C66.0965 35.0551 65.1913 35.5703 63.7811 35.5594L63.5157 35.557C63.2111 35.5484 62.9073 35.5186 62.6066 35.4677L60.3954 35.4505C60.1775 35.2089 59.7139 34.7659 59.2377 34.3109C58.9764 34.0612 58.7112 33.8079 58.4809 33.5822H58.4629L58.4558 34.5101C58.4308 35.1436 58.5216 35.2039 59.1582 35.2438L59.1566 35.4474L56.0622 35.4231C55.8688 35.4255 55.6754 35.4168 55.4835 35.3965C55.1077 35.3479 54.7592 35.1757 54.4914 34.9079C54.2182 34.615 53.9762 34.2932 53.7711 33.9487C53.6912 33.8171 53.5487 33.7373 53.3944 33.7365L53.2778 33.7357L53.2723 34.4749C53.2676 35.1083 53.3396 35.1694 53.9621 35.2086L53.9606 35.4161L51.0485 35.3933L51.0501 35.1859C51.6914 35.1491 51.765 35.0896 51.7697 34.4631L51.7783 33.3896C51.7376 34.6072 50.4002 35.4396 48.6533 35.4255C46.7936 35.4106 45.5956 34.4655 45.6042 33.399C45.605 33.3442 45.6097 33.2886 45.6168 33.2338C45.4946 33.4838 45.3628 33.7423 45.2251 34.0122C45.0153 34.4237 44.792 34.8618 44.5683 35.337L43.5982 35.3291L41.7706 32.1368H41.7448L40.0307 35.301L39.0606 35.2931L37.2181 31.6615C36.7593 31.7069 36.7342 31.8291 36.7538 32.3623L36.8313 34.3324C36.8533 34.9838 36.8713 35.0441 37.5314 35.0911L37.5298 35.2728L34.6561 35.2501L34.6577 35.0465C35.346 35.0167 35.3734 34.9776 35.3695 34.3238L35.3585 32.2543H35.3225L33.4879 35.2485L33.069 35.2454L31.3714 32.4289H31.3534L31.279 33.7334C31.2445 34.056 31.2477 34.3817 31.2892 34.7035C31.3244 34.9204 31.5256 35.0003 32.1223 35.034L32.1207 35.2375L28.2237 35.207L28.2252 35.0034L28.4891 35.0058C28.8148 34.9791 28.8336 34.8773 28.7209 34.6651L28.4069 34.0748L26.9505 34.063L26.6803 34.6072C26.5543 34.8585 26.5629 34.9611 26.9685 34.9932L27.223 34.9956L27.2214 35.1992L21.366 35.153C20.9816 35.1772 20.5971 35.1115 20.2424 34.9619C19.7567 34.7187 19.4379 34.2357 19.145 33.7919C19.1239 33.7598 19.1029 33.7281 19.082 33.6966C19.006 33.5674 18.869 33.4867 18.7194 33.4828L18.6051 33.482L18.5996 34.1883C18.5941 34.8147 18.6646 34.8805 19.2762 34.922L19.2746 35.1256L16.4698 35.1036L16.4714 34.9C17.1009 34.8773 17.173 34.8124 17.1777 34.1773L17.1933 32.237C17.1965 31.8972 17.1761 31.7147 17.0657 31.6137C17.0195 31.5769 16.9663 31.5519 16.9083 31.5394C16.8284 31.5276 16.7486 31.5221 16.6679 31.5229L16.5881 31.5221C16.7392 31.7602 16.8198 32.0358 16.8222 32.3177C16.8073 34.2744 14.3995 35.0872 11.464 35.0637L8.18945 35.0379L8.1918 34.7849C9.11811 34.745 9.22068 34.6495 9.22773 33.7991L9.24809 31.2034C9.25435 30.3539 9.15334 30.2983 8.32726 30.2442L8.32961 29.9381L12.0387 29.9671C13.6024 29.9796 14.8968 30.1769 15.7448 30.6953C16 30.8542 16.2279 31.0531 16.4189 31.2849L19.3059 31.3076C19.9973 31.3131 20.4483 31.3694 20.8023 31.5198C21.1562 31.6701 21.42 31.9363 21.4169 32.284C21.413 32.8016 20.9244 33.103 20.2659 33.269C20.3904 33.4358 20.7146 33.8438 20.969 34.1155C21.2689 34.431 21.4623 34.6307 21.6033 34.7505C21.6628 34.803 21.7317 34.8437 21.8061 34.8703C21.8993 34.8946 21.9971 34.8954 22.0903 34.8727C22.3542 34.8131 22.3918 34.6605 22.3957 34.2126L22.4113 32.2723C22.4168 31.6396 22.3464 31.5621 21.7458 31.5229L21.7474 31.3279L25.9882 31.3616C25.9968 31.4618 26.0367 31.8917 26.079 32.3326L25.6836 32.3474C25.6421 32.1282 25.5309 31.9277 25.3657 31.7774C25.2263 31.6764 24.9319 31.6396 24.4566 31.6357L24.3039 31.6341C23.9586 31.631 23.9398 31.6599 23.9382 31.8659L23.9296 32.9872L24.3791 32.9911C25.1488 32.9973 25.177 32.9738 25.2693 32.5283L25.664 32.5314L25.653 33.9182L25.2419 33.915C25.1566 33.392 25.1315 33.3685 24.3595 33.3622L23.9116 33.3583L23.9038 34.305C23.9014 34.6103 23.9202 34.7709 24.0815 34.8249C24.2867 34.8742 24.4981 34.8938 24.7087 34.8828C25.0673 34.8852 25.5794 34.8492 25.7767 34.709C25.8566 34.6464 25.9263 34.572 25.9842 34.489L26.043 34.3927L27.8322 31.3687L28.4429 31.2919L29.0349 32.4069C29.4068 33.1101 29.7811 33.807 30.1115 34.4083C30.2297 34.6237 30.3754 34.8468 30.4302 34.8366C30.4765 34.8274 30.4904 34.7718 30.504 34.7174C30.5065 34.7074 30.509 34.6975 30.5116 34.6879C30.5899 34.3496 30.6424 34.0066 30.6674 33.6605L30.7786 32.4743C30.8554 31.7343 30.7849 31.6333 30.0575 31.5879L30.059 31.3929L32.2194 31.4102L33.8081 33.7506L35.2316 31.4321L37.1046 31.447L36.9519 31.1439C36.6259 30.4988 36.4022 30.479 35.8576 30.4308C35.8423 30.4295 35.8268 30.4281 35.8111 30.4267L35.8134 30.1589L39.7449 30.1902L39.7426 30.458L39.3386 30.4878C38.8727 30.5316 38.8335 30.5692 38.9823 30.8965L40.1552 33.54L40.1811 33.4961L41.8583 30.1824L42.7407 30.1894L44.6294 33.5313L44.6544 33.5752C45.1117 32.6481 45.5972 31.5182 45.7663 31.0719C45.9362 30.6248 45.9018 30.559 45.356 30.5222L44.8776 30.4854L44.8799 30.2176L47.8906 30.2411L47.8883 30.5089C47.8676 30.5107 47.8474 30.5124 47.8277 30.514C47.1795 30.5684 47.0557 30.5788 46.6355 31.2559C46.6081 31.3013 46.4029 31.678 46.0944 32.2707C46.5955 31.7578 47.359 31.371 48.6823 31.3812C50.3477 31.3945 51.7525 32.1665 51.7744 33.2949L51.7807 32.4704C51.7853 31.8369 51.7712 31.7766 51.1675 31.7375L51.1112 31.5401L53.9739 31.5629C54.6786 31.5683 55.1382 31.6083 55.4976 31.757C55.857 31.9058 56.1256 32.19 56.1232 32.5322C56.1185 33.042 55.6198 33.3403 54.9503 33.5039C54.9818 33.543 55.0248 33.5982 55.0754 33.6633C55.2363 33.8701 55.4749 34.1769 55.6714 34.3817C55.8124 34.5289 55.9494 34.6769 56.0864 34.8257C56.2031 34.9768 56.3668 35.0856 56.5516 35.135C56.6917 35.1616 56.8867 35.1318 56.9462 34.9815C56.9893 34.8178 57.0073 34.6487 56.9994 34.4796L57.0151 32.5009C57.0206 31.8674 56.9501 31.8071 56.3221 31.7672L56.3237 31.5707L59.1105 31.5926L59.1089 31.7891C58.5177 31.8259 58.4457 31.8854 58.441 32.5119L58.4339 33.4217C59.0932 32.9519 59.6429 32.5267 60.1667 32.0906C60.2936 31.9935 60.393 31.8306 60.1511 31.8103L59.8105 31.8079L59.812 31.6114L62.2143 31.6302L62.2128 31.8667C62.188 31.8681 62.1639 31.8695 62.1403 31.8709C61.6757 31.898 61.4172 31.9131 60.9545 32.1955C60.4682 32.4923 60.018 32.7851 59.639 33.0662C59.7559 33.1826 59.8743 33.3016 59.9936 33.4215C60.4386 33.8688 60.8968 34.3292 61.3389 34.7176C61.5472 34.9259 61.8017 35.0825 62.0812 35.1749L62.2026 35.2031L62.1689 35.0903C62.1507 35.0316 62.1314 34.971 62.1113 34.9081C62.0566 34.736 61.9964 34.5469 61.9379 34.3347L62.3388 34.2611C62.6638 34.8476 63.2753 35.218 63.9456 35.2352C64.4248 35.2391 64.7896 35.0723 64.7928 34.6957C64.7959 34.3535 64.4514 34.1492 63.8884 33.9933L63.7522 33.9518C62.9989 33.731 62.1642 33.417 62.1689 32.7961C62.1736 32.1407 62.9331 31.6138 64.3621 31.6247C64.6432 31.6263 64.9228 31.6513 65.1992 31.7007C65.2494 31.7093 65.2959 31.7172 65.3393 31.7246C65.4766 31.748 65.5823 31.766 65.6721 31.7845C65.7074 32.0154 65.7684 32.3004 65.8655 32.6959L65.4646 32.7327C65.2571 32.2402 64.7669 31.9277 64.2329 31.9473C63.7686 31.9442 63.4397 32.1376 63.4374 32.4273C63.435 32.7162 63.7796 32.894 64.37 33.0607ZM53.3937 33.4601C53.6239 33.4781 53.8549 33.4468 54.0718 33.3669H54.0764C54.381 33.2479 54.5838 32.9558 54.5885 32.6285C54.5932 32.0718 54.0631 31.8181 53.6849 31.815C53.3067 31.8118 53.2786 31.8721 53.277 32.1031L53.266 33.4593L53.3937 33.4601ZM47.3151 33.3794C47.3089 34.1452 47.7497 35.07 48.6596 35.077L48.6611 35.0794C49.4528 35.0856 50.0604 34.2533 50.0666 33.4303C50.076 32.266 49.4817 31.7022 48.6901 31.696C47.9799 31.6905 47.3229 32.3639 47.3151 33.3794ZM27.6677 32.5667L27.1126 33.6723L28.2417 33.6817L27.6951 32.5667H27.6677ZM18.7367 33.2025C18.9622 33.2205 19.1892 33.1884 19.4014 33.1077C19.7037 32.9817 19.9018 32.6873 19.9049 32.36C19.9096 31.7954 19.396 31.5605 19.0248 31.5574C18.6537 31.555 18.6255 31.6145 18.6239 31.8494L18.6129 33.2017L18.7367 33.2025ZM11.3881 33.825C11.3826 34.5187 11.6613 34.7027 12.2713 34.7074L12.2697 34.709C13.3636 34.7176 14.4747 33.9346 14.4857 32.5424C14.499 30.8519 13.117 30.3695 12.038 30.3609C11.854 30.35 11.67 30.3664 11.4914 30.411C11.4272 30.4267 11.4131 30.6068 11.4116 30.8033L11.3881 33.825Z" fill="white"/>
</svg>
