<svg width="73" height="37" viewBox="0 0 73 37" fill="none" xmlns="http://www.w3.org/2000/svg">
<path fill-rule="evenodd" clip-rule="evenodd" d="M7.44216 24.1093L4.74001 24.087L4.76618 20.6105C4.77054 19.9098 4.47394 19.3743 3.93089 19.352C3.39657 19.3274 3.0389 19.9254 3.03454 20.5324L3.00619 24.0736L0.282227 24.0513L0.306217 20.876C0.312759 19.9076 0.587555 19.0931 1.06299 18.4639C1.59077 17.7654 2.55692 17.1205 3.7128 17.0603C4.85342 17 5.65817 17.4575 6.30154 18.031C6.89475 18.5598 7.47269 19.5461 7.46615 20.4163C7.46397 21.2866 7.44216 24.1093 7.44216 24.1093ZM35.203 15.9111C35.2052 15.4894 35.2553 15.0543 35.1703 14.7441C35.0612 14.3536 34.7166 13.9899 34.396 13.8515C33.5738 13.499 32.8127 14.0434 32.5968 14.5924C32.4594 14.9382 32.5052 15.4559 32.5008 15.9736C32.479 18.6669 32.455 21.7597 32.4354 24.3102C33.3361 24.3169 34.2368 24.3258 35.1376 24.3325C35.1572 21.7106 35.1812 18.629 35.203 15.9111ZM43.9004 18.7227C43.4992 19.2203 43.1219 19.921 43.0608 20.7466C42.9605 22.1078 43.4774 22.9981 44.0727 23.6273C44.5853 24.1696 45.3442 24.6493 46.2602 24.7252C47.3768 24.8167 48.1859 24.4507 48.8424 23.9464C49.4574 23.4734 49.9787 22.679 50.1466 21.8177C50.2447 21.3178 50.2229 20.1553 50.2229 20.1553C50.2229 20.1553 50.2578 15.6255 50.2622 15.119C50.2665 14.6124 49.8325 14.1505 49.3854 13.972C48.5262 13.6262 47.4902 14.2867 47.5251 15.3109C47.5448 15.8754 47.5208 17.5423 47.5208 17.5423C45.8916 17.1228 44.6092 17.8435 43.9004 18.7227ZM46.5546 19.4368C47.1478 19.3363 47.4532 20.1709 47.4946 20.8046C47.5491 21.657 47.2547 22.6299 46.74 22.7214C46.0356 22.8463 45.7084 21.7597 45.7608 20.8983C45.8 20.2936 46.0334 19.5238 46.5546 19.4368ZM25.0247 19.2248C25.5066 18.3791 24.8415 17.482 24.318 17.2678C24.1807 17.212 23.9233 17.1496 23.6638 17.1763C22.9659 17.2477 22.6475 17.8034 22.3683 18.3099C22.0979 18.8008 21.3847 20.0526 21.3847 20.0526C21.3847 20.0526 21.3934 18.9815 21.3978 18.4549C21.4022 17.9283 20.966 17.1897 19.9977 17.1786C19.2278 17.1696 18.6782 17.8658 18.6739 18.562C18.6673 19.3765 18.6608 20.3784 18.652 21.3692C18.6433 22.3822 18.6302 24.1986 18.6302 24.1986L21.3542 24.2209L21.3716 22.0185L22.7892 24.2321L24.9134 24.2499C25.4936 24.2544 25.5568 23.7434 25.33 23.3841C24.9178 22.7281 23.9102 21.175 23.9102 21.175C23.9102 21.175 24.5449 20.0705 25.0247 19.2248ZM16.0219 17.4396C14.5977 16.8148 13.0187 17.3348 12.1747 18.1872C11.5924 18.774 11.165 19.5639 11.1017 20.49C11.0123 21.7887 11.4398 22.6567 12.1137 23.3707C12.6545 23.942 13.3742 24.3905 14.2793 24.4686C15.1626 24.5445 15.8299 24.3481 16.3948 24.0312C17.0949 23.6407 17.6117 23.0427 17.928 22.3153C18.0676 21.9962 18.194 21.6548 18.2311 21.1951L15.5072 21.1728C15.4396 21.7619 15.1822 22.4871 14.6523 22.4826C14.1157 22.4782 13.83 21.6526 13.7973 20.963C13.7733 20.4297 13.9107 19.8406 14.1048 19.5394C14.2161 19.3676 14.4407 19.1534 14.6784 19.1556C14.9728 19.1578 15.1648 19.4122 15.2869 19.6354C15.4265 19.8897 15.4832 20.1597 15.5115 20.4788L18.2355 20.5011C18.0697 19.0106 17.2192 17.9662 16.0219 17.4396ZM31.2141 18.3612C30.6274 17.7342 29.7027 17.1897 28.4792 17.2589C26.9242 17.3481 25.8534 18.359 25.3802 19.5238C25.0988 20.2155 25.0138 21.0523 25.1926 21.811C25.3867 22.6277 25.9014 23.3373 26.4444 23.7858C26.9221 24.183 27.633 24.5221 28.3811 24.5779C29.1815 24.6404 29.742 24.4641 30.285 24.183C31.2664 23.6742 31.7746 23.007 32.0145 21.7128C31.2119 21.7061 30.4093 21.6994 29.6089 21.6927C29.3756 22.0609 29.1466 22.5853 28.6319 22.5496C28.1063 22.5116 27.9122 21.7797 27.8402 21.2911C29.2469 21.3022 30.6558 21.3134 32.0625 21.3245C32.1868 20.0169 31.8466 19.0396 31.2141 18.3612ZM29.4694 20.2691L27.886 20.2557C27.9471 19.6599 28.5316 18.8968 29.0746 19.4011C29.2709 19.5863 29.4083 19.9366 29.4694 20.2691ZM37.6172 17.7007C37.2356 17.8859 36.9041 18.1202 36.6402 18.3835C36.0906 18.9391 35.6435 19.68 35.5672 20.6417C35.456 22.0631 36.0121 23.036 36.7056 23.6965C37.3664 24.328 38.2497 24.6873 39.2529 24.6672C40.2518 24.6471 41.0565 24.212 41.6672 23.585C42.2277 23.0115 42.7097 22.1613 42.7206 21.0657C42.7337 19.8897 42.2321 18.9748 41.6432 18.3991C41.0435 17.8145 40.1297 17.2834 38.9498 17.3615C38.398 17.4039 38.0033 17.5133 37.6172 17.7007ZM39.0392 19.3765C39.772 19.2315 40.0577 20.4097 39.9966 21.2643C39.9486 21.9248 39.6477 22.5897 39.2464 22.6611C39.1744 22.6745 39.0566 22.6678 39.0152 22.6589C38.4809 22.5674 38.2104 21.5901 38.2693 20.7957C38.3108 20.2423 38.5049 19.7291 38.7644 19.5037C38.8211 19.4524 38.9323 19.3966 39.0392 19.3765ZM55.6665 17.8257C55.1845 17.5869 54.6 17.424 53.9392 17.4664C52.9403 17.5289 52.2337 17.9395 51.6514 18.5286C50.9557 19.2292 50.4824 20.1196 50.574 21.4584C50.6722 22.9066 51.6492 24.0379 52.768 24.5221C53.4681 24.8256 54.2794 24.8769 55.0035 24.6917C56.3535 24.3481 57.252 23.4109 57.4744 21.9248L55.0689 21.9047C54.8464 22.2796 54.624 22.7928 54.1115 22.7616C53.5662 22.7281 53.3831 22.0207 53.3198 21.503L57.5421 21.5365C57.7013 19.6108 56.89 18.4326 55.6665 17.8257ZM54.9359 20.4967L53.3656 20.4833C53.4659 19.9701 53.7342 19.352 54.3252 19.4858C54.6763 19.5684 54.8726 20.095 54.9359 20.4967ZM58.868 18.7361C58.349 19.3274 57.8605 20.2133 57.939 21.4495C58.0066 22.5072 58.4864 23.3083 59.1014 23.8996C59.7251 24.4976 60.6717 24.9082 61.7534 24.8502C62.8024 24.7944 63.5635 24.2878 64.148 23.6608C64.7172 23.0494 65.1687 22.139 65.0967 20.9675C65.0662 20.452 64.9157 19.9834 64.7063 19.5595C64.1502 18.4304 62.9943 17.424 61.3019 17.5445C60.2246 17.6249 59.4024 18.1291 58.868 18.7361ZM61.4372 19.5572C62.0195 19.4613 62.3226 20.2601 62.3771 20.8403C62.4578 21.6882 62.1656 22.7459 61.6225 22.8419C61.2758 22.9021 61.0228 22.6366 60.8876 22.3822C60.471 21.6035 60.6389 20.1263 61.1406 19.6844C61.2082 19.622 61.3237 19.5751 61.4372 19.5572ZM72.5925 20.943C72.5991 20.0727 72.0211 19.0864 71.4279 18.5576C70.7845 17.9819 69.9776 17.5267 68.8392 17.5869C67.6833 17.6472 66.7171 18.2943 66.1894 18.9905C65.7139 19.6197 65.4391 20.4342 65.4326 21.4026L65.4086 24.5779L68.1326 24.6002L68.1609 21.059C68.1653 20.4521 68.5229 19.854 69.0573 19.8786C69.6003 19.9031 69.8969 20.4364 69.8926 21.1371L69.8664 24.6136L72.5685 24.6359C72.5642 24.6359 72.586 21.811 72.5925 20.943ZM10.7026 20.2044C10.707 19.7469 10.7135 19.2805 10.6634 18.8856C10.611 18.4683 10.3864 18.1805 10.129 17.9105C9.94802 17.7208 9.64924 17.4954 9.64924 17.2143C9.64924 16.9643 9.91749 16.7367 10.0985 16.5493C10.2904 16.3485 10.5303 16.161 10.6525 15.9714C11.0625 15.3243 10.9098 14.5009 10.4562 14.0033C10.1312 13.769 9.83244 13.5213 9.27631 13.5614C8.51081 13.6172 7.84126 14.271 7.86962 15.1703C7.89143 15.8464 8.26436 16.1276 8.61985 16.4935C8.81395 16.6943 9.08875 16.9777 9.07784 17.2321C9.06694 17.4887 8.79432 17.7052 8.60895 17.8971C8.4083 18.1068 8.24255 18.3077 8.14659 18.5196C7.97212 18.9124 7.98302 19.5729 7.97866 20.1597C7.96776 21.4629 7.95685 22.8776 7.94813 24.1116C8.85539 24.1183 9.76265 24.1272 10.6721 24.1339C10.6808 22.862 10.6917 21.4785 10.7026 20.2044Z" fill="white"/>
</svg>
