<svg width="73" height="37" viewBox="0 0 73 37" fill="none" xmlns="http://www.w3.org/2000/svg">
<path d="M19.2546 14.6102C19.2546 11.866 16.3426 10.5443 12.8833 10.5443C9.18394 10.5443 5.78662 12.1835 4.54232 14.7263C4.19897 15.4027 4.02084 16.1539 4.02084 16.9129C4.00535 17.5686 4.18606 18.2166 4.54232 18.7691C5.0767 19.5564 6.02929 20.0521 7.42849 20.0521C9.14522 20.0521 10.5057 19.1124 10.5057 17.4705C10.5057 17.4705 10.5315 17.0136 9.99713 17.0136C9.56601 17.0136 9.44984 17.3182 9.46275 17.4705C9.52729 18.7536 8.76315 19.7836 7.40267 19.7836C5.87698 19.7836 5.24192 18.4877 5.24192 17.1014C5.24192 14.2668 7.37944 12.3849 9.60473 11.5717C10.6451 11.1793 11.75 10.9857 12.8601 10.9986C15.3771 10.9986 17.4372 11.9641 17.4372 14.5585C17.4372 16.7193 15.6197 18.5625 13.4435 18.7277L13.5313 18.436C13.9753 16.8458 14.5226 15.1058 15.4132 13.8228C15.4648 13.7454 15.5526 13.6189 15.6559 13.4924L15.5294 13.3401C15.3384 13.4562 15.1551 13.5827 14.9821 13.7221C10.8103 16.9749 10.6838 26.1265 5.12833 26.1265C4.93729 26.1265 4.74626 26.1136 4.55522 26.0877C3.39869 25.8967 2.78686 25.1223 2.78686 24.0406C2.78686 23.8237 2.86431 23.532 2.86431 23.3668C2.87206 23.0596 2.63197 22.804 2.32477 22.7937C2.32219 22.7937 2.3196 22.7937 2.31702 22.7937H2.25248C1.75683 22.7937 1.55288 23.1861 1.53998 23.7463C1.50125 25.3598 2.69651 26.302 4.54232 26.4801C4.74626 26.4931 4.9502 26.506 5.16447 26.506C9.50147 26.506 12.1579 23.2274 13.2912 19.2492C13.8643 19.1821 14.4296 19.0634 14.9821 18.893C16.9905 18.3354 19.2546 16.9878 19.2546 14.6102ZM60.5593 15.5628H59.0336L58.6903 16.363L58.0914 17.7106H57.3789L57.162 18.1676H57.9003L57.0097 20.1373C56.3746 21.5236 55.3833 22.8814 54.8102 22.8814C54.6837 22.8814 54.6063 22.8298 54.6063 22.7033C54.6063 22.5768 54.645 22.4607 54.7844 22.107C54.9625 21.6862 55.2542 21.077 55.4711 20.6329C55.7886 19.985 56.2972 18.9808 56.2972 18.4851C56.2972 17.9894 55.9797 17.5944 55.3549 17.5944C54.6553 17.5944 54.0203 18.0152 53.4343 18.6245L53.8163 17.7106H52.381L51.2115 20.3799C50.7417 21.3196 49.7865 22.884 49.1902 22.884C49.0637 22.884 49.0121 22.8066 49.0121 22.6801C49.025 22.5665 49.0534 22.4555 49.1024 22.3497C49.154 22.2361 49.8536 20.5968 49.8536 20.5968L51.1264 17.6848H49.5748L48.3409 20.5194C47.9588 21.3971 46.9933 22.884 46.3711 22.884C46.2627 22.8944 46.1646 22.8143 46.1543 22.7059V22.6543C46.1543 22.502 46.2679 22.2232 46.3582 22.0192L47.0062 20.5968L48.3409 17.6848H46.8023L46.4951 18.3457C46.2679 18.7897 45.8858 19.3112 45.274 19.3112C44.9823 19.3112 44.8429 19.1976 44.7783 19.0814C44.6906 18.103 44.0658 17.5816 43.1494 17.5816C41.8767 17.5816 40.9757 18.3302 40.3768 19.2466C39.9844 19.8765 39.6772 20.5555 39.4629 21.268C38.9156 22.1715 38.3451 22.8711 37.8856 22.8711C37.772 22.8711 37.6946 22.8066 37.6946 22.6543C37.6946 22.502 37.8469 22.1586 37.8985 22.0321L38.9027 19.8972C39.1815 19.2363 39.3726 18.8052 39.3726 18.3715C39.3726 17.9146 39.055 17.5841 38.5336 17.5841C37.8081 17.5841 37.0208 18.0049 36.396 18.689C36.4167 18.5806 36.4244 18.4696 36.4219 18.3586C36.4219 17.85 36.1689 17.5841 35.6448 17.5841C34.9839 17.5841 34.2972 17.9791 33.6751 18.689L34.083 17.6977H32.6838L31.5014 20.367C30.9412 21.6242 30.0403 22.8711 29.5291 22.8711C29.4155 22.8711 29.3381 22.8066 29.3381 22.6543C29.3381 22.4142 29.604 21.8153 29.7072 21.5752L31.2717 18.0282C31.3853 17.7623 30.6366 17.597 29.6814 17.597C28.703 17.597 27.6988 18.0798 26.9605 18.7019C26.439 19.1331 26.0569 19.3499 25.8659 19.3499C25.8039 19.3628 25.742 19.3241 25.7291 19.2621C25.7265 19.2544 25.7265 19.244 25.7265 19.2363C25.7265 19.0195 26.248 18.4102 26.248 17.9404C26.248 17.7235 26.1344 17.5841 25.8401 17.5841C25.2799 17.5841 24.619 18.1185 24.1363 18.6761L24.5442 17.6977H23.1708L21.9884 20.367C21.4282 21.6242 20.5014 22.9357 19.9929 22.9357C19.8793 22.9357 19.8018 22.8711 19.8018 22.7188C19.8018 22.4761 20.0574 21.8927 20.1968 21.5881L21.7612 18.0282C21.8748 17.7623 21.1262 17.597 20.171 17.597C18.7589 17.597 17.3855 18.5496 16.6601 19.528C15.8598 20.5839 15.3125 21.7017 15.2996 22.6156C15.2867 23.3539 15.6688 23.8108 16.4303 23.8108C17.2823 23.8108 17.9689 23.137 18.3639 22.6285C18.3407 22.7291 18.3226 22.8298 18.3123 22.9331C18.3123 23.4417 18.5162 23.8108 19.1384 23.8108C19.6857 23.8108 20.4111 23.3539 20.9945 22.6285L20.5247 23.7101H22.0117L23.4754 20.3929C23.9607 19.3138 24.5054 18.7536 24.6577 18.7536C24.6939 18.7458 24.7274 18.7691 24.7326 18.8052C24.7326 18.8104 24.7326 18.8129 24.7326 18.8181C24.7326 18.9317 24.5028 19.2389 24.5028 19.5177C24.5028 19.7965 24.6552 20.0134 25.063 20.0134C25.3806 20.0134 25.7368 19.861 26.0544 19.6571C25.3031 20.6742 24.7946 21.743 24.7946 22.6182C24.7817 23.3565 25.1637 23.8134 25.9253 23.8134C26.7256 23.8134 27.4768 23.0518 27.8847 22.5433C27.8692 22.662 27.8614 22.7808 27.8589 22.8995C27.8589 23.3952 28.1377 23.816 28.7108 23.816C29.3458 23.816 29.8544 23.421 30.492 22.6466L30.0222 23.7153H31.5479L32.9471 20.5503C33.5563 19.177 34.385 18.4412 34.7903 18.4412C34.891 18.4309 34.9839 18.5057 34.9943 18.6064V18.6452C34.9788 18.8 34.9349 18.9498 34.8678 19.0892L32.8593 23.7282H34.4237L35.8487 20.4987C36.458 19.1124 37.1318 18.4386 37.6429 18.4386C37.7952 18.4386 37.8598 18.5161 37.8598 18.6813C37.8469 18.8594 37.7978 19.0298 37.7204 19.1899L36.347 22.1122C36.2205 22.3935 36.143 22.693 36.1172 23.0028C36.1172 23.4468 36.3599 23.8418 37.0466 23.8418C37.9372 23.8418 38.611 23.168 39.3726 22.1638V22.3806C39.4371 23.1809 39.8811 23.8805 41.0635 23.8805C42.4627 23.8805 43.5934 22.915 44.2801 21.3764C44.5408 20.8369 44.7086 20.256 44.7757 19.6597C44.9281 19.7371 45.101 19.7733 45.2714 19.7629C45.5037 19.7655 45.7309 19.7087 45.9323 19.5977L45.6896 20.1192C45.4082 20.7052 45.1036 21.3532 44.8635 21.9005C44.7112 22.2232 44.6209 22.5717 44.5976 22.9305C44.5976 23.4778 44.9022 23.8702 45.5244 23.8702C46.1465 23.8702 47.001 23.2842 47.6103 22.4581H47.6232C47.5819 22.6285 47.5612 22.804 47.5587 22.9795C47.5587 23.4365 47.6981 23.8702 48.3357 23.8702C49.074 23.8702 49.6445 23.3358 50.2047 22.662L49.7349 23.7308H51.2735L52.5075 20.935C53.2071 19.3577 53.9067 18.4051 54.5547 18.4051C54.6657 18.3999 54.7612 18.4851 54.7715 18.5961V18.6348C54.7715 18.9007 54.3894 19.6261 54.0461 20.3516C53.7286 21.0124 53.4859 21.521 53.3207 21.916C53.1684 22.249 53.078 22.6052 53.0548 22.9718C53.0548 23.4546 53.3207 23.8237 53.9196 23.8237C54.8102 23.8237 55.7112 22.9589 56.1939 22.3109C56.0855 22.6207 56.0261 22.9486 56.0158 23.2764C56.0158 24.1671 56.5502 24.6111 57.2988 24.6111C57.7971 24.6085 58.2824 24.4485 58.6851 24.1542C59.2686 23.7463 59.741 23.137 60.136 22.5768L59.8701 22.3213C59.5009 22.8427 59.093 23.3384 58.6748 23.643C58.4528 23.8289 58.1766 23.9373 57.8874 23.9476C57.5699 23.9476 57.366 23.7824 57.366 23.3771C57.366 22.9718 57.557 22.4245 57.8487 21.6862C57.8616 21.6733 58.2798 20.7336 58.6748 19.8301C59.0052 19.0659 59.3357 18.3302 59.4002 18.1779H60.4044L60.6084 17.7209H59.6171L60.5593 15.5628ZM17.1816 22.897C16.9647 22.897 16.8124 22.8195 16.8124 22.5407C16.8253 21.7895 17.4475 20.4574 18.2245 19.3886C18.7718 18.6503 19.4843 18.1056 20.2459 18.1056L19.2804 20.2663C18.555 21.8927 17.7676 22.897 17.1816 22.897ZM26.6946 22.897C26.4777 22.897 26.3254 22.8195 26.3125 22.5407C26.3254 21.7895 26.9476 20.4574 27.7246 19.3886C28.2719 18.6503 28.9844 18.1056 29.746 18.1056L28.7805 20.2663C28.0422 21.9314 27.2909 22.897 26.6946 22.897ZM43.5805 18.6916C43.5418 19.5177 42.8189 21.5132 41.967 22.7085C41.6237 23.1913 41.332 23.3307 41.0764 23.3307C40.7201 23.3307 40.6169 23.0389 40.6685 22.6052C40.7434 21.8566 41.3681 20.1011 42.2329 18.893C42.6279 18.3457 42.8938 18.1185 43.1984 18.1185C43.5056 18.1185 43.596 18.3741 43.5805 18.6916ZM67.3152 17.7106L68.717 14.4785H67.0597L65.6579 17.7106H62.1341L61.5455 19.0659H65.0693L63.6675 22.298H65.3249L66.7266 19.0659H70.2505L70.8365 17.7106H67.3152Z" fill="white"/>
</svg>
