<svg width="73" height="37" viewBox="0 0 73 37" fill="none" xmlns="http://www.w3.org/2000/svg">
<path d="M70.0858 9.38466C70.0913 8.65164 70.6948 8.05916 71.4278 8.06467C72.1581 8.07019 72.7368 8.67369 72.7478 9.40671C72.7423 10.1397 72.1388 10.7322 71.4058 10.7267C70.6728 10.7212 70.0803 10.1177 70.0858 9.38466Z" fill="white"/>
<path fill-rule="evenodd" clip-rule="evenodd" d="M5.19665 14.4056C2.63933 14.3863 0.544973 16.4476 0.522927 19.0049L0.4375 29.7275L2.63657 29.744L2.68342 23.7916L3.48534 24.6487L6.72608 23.4031C8.57241 22.7004 9.78218 21.0497 9.79596 19.0738C9.81525 16.522 7.75396 14.4277 5.19665 14.4056ZM5.96274 21.4575L2.69169 22.7031L2.722 19.0242C2.73302 17.5444 3.84909 16.4917 5.18011 16.5C6.51113 16.511 7.60791 17.5968 7.59689 19.0628C7.59138 19.9887 7.13393 21.0028 5.96274 21.4575Z" fill="white"/>
<path fill-rule="evenodd" clip-rule="evenodd" d="M43.9891 14.7142C41.4317 14.695 39.3374 16.7562 39.3153 19.3136C39.2961 21.8709 41.3573 23.9652 43.9147 23.9873C46.472 24.0066 48.5663 21.9453 48.5884 19.388C48.6104 16.8279 46.5464 14.7335 43.9891 14.7142ZM43.934 21.8929C42.5285 21.8819 41.5062 20.7521 41.5172 19.3301C41.5282 17.9081 42.6002 16.7976 43.9753 16.8059C45.3807 16.8169 46.4031 17.9467 46.3921 19.3687C46.381 20.7906 45.3394 21.9039 43.934 21.8929Z" fill="white"/>
<path d="M54.0089 16.8858C54.9651 16.894 55.7395 17.4231 56.1363 18.203L57.8669 16.8995C57.0402 15.6512 55.6403 14.819 54.0254 14.8052C51.4681 14.7859 49.3738 16.8472 49.3517 19.4045C49.3324 21.9618 51.3937 24.0562 53.951 24.0782C55.5521 24.092 56.9768 23.2791 57.8256 22.0445L56.117 20.7135C55.7064 21.4878 54.9238 22.0059 53.9676 21.9976C52.5621 21.9866 51.5398 20.8568 51.5508 19.4348C51.5618 18.0129 52.631 16.8747 54.0089 16.8858Z" fill="white"/>
<path d="M35.2534 16.7397C36.2096 16.748 36.984 17.2771 37.3808 18.057L39.1114 16.7535C38.2847 15.5051 36.8848 14.6729 35.2699 14.6591C32.7126 14.6398 30.6183 16.7011 30.5962 19.2584C30.5769 21.8158 32.6382 23.9101 35.1955 23.9322C36.7966 23.9459 38.2241 23.133 39.0701 21.8984L37.3615 20.5674C36.9509 21.3418 36.1711 21.8599 35.2121 21.8516C33.8066 21.8406 32.7843 20.7107 32.7953 19.2888C32.8063 17.8668 33.8645 16.7287 35.2534 16.7397Z" fill="white"/>
<path fill-rule="evenodd" clip-rule="evenodd" d="M27.5759 15.6898C26.8346 14.9071 25.8508 14.571 24.8174 14.5627C22.6625 14.5462 20.4661 16.4889 20.4441 19.1648C20.4221 21.8406 22.5908 23.8192 24.743 23.8357C25.7764 23.844 26.7658 23.5243 27.5181 22.75L27.5126 23.5877L29.7116 23.6042L29.7805 14.8851L27.5814 14.8686L27.5759 15.6898ZM25.0903 21.7441C23.6848 21.7331 22.6322 20.6033 22.6432 19.1813C22.6542 17.7593 23.7537 16.6488 25.1316 16.6598C26.537 16.6708 27.5594 17.8007 27.5484 19.2226C27.5374 20.6418 26.4957 21.7551 25.0903 21.7441Z" fill="white"/>
<path d="M63.9654 19.1923L62.9788 19.1841L66.8231 15.1607L63.9957 15.1386L60.89 18.4345L60.9533 10.3602L58.7543 10.3437L58.6468 23.833L60.8459 23.8495L60.8652 21.3666L62.086 20.0907L64.6433 23.8798L67.3053 23.9019L63.9654 19.1923Z" fill="white"/>
<path fill-rule="evenodd" clip-rule="evenodd" d="M15.1862 14.4855C12.6289 14.4662 10.5345 16.5275 10.5125 19.0848C10.4932 21.6422 12.5544 23.7365 15.1118 23.7586C16.6384 23.7696 18.0797 23.0503 18.9092 21.9205L17.1538 20.6804C16.9416 21.0221 16.2637 21.6752 15.1283 21.667C14.0811 21.6587 13.2351 21.0249 12.8824 20.11L19.5678 20.1623C19.6449 19.8344 19.678 19.5065 19.6808 19.162C19.7166 16.6019 17.7435 14.5048 15.1862 14.4855ZM12.9154 18.101C13.282 17.1916 14.139 16.5716 15.1696 16.5799C16.2168 16.5882 17.005 17.222 17.3274 18.1369L12.9154 18.101Z" fill="white"/>
<path d="M71.3121 22.6177C70.5791 22.6122 69.9756 23.2047 69.9701 23.9377C69.9646 24.6707 70.5571 25.2742 71.2901 25.2797C72.0231 25.2853 72.6266 24.6928 72.6321 23.9597C72.6376 23.2267 72.0451 22.6232 71.3121 22.6177Z" fill="white"/>
<path d="M69.9977 20.3029C70.0032 19.5699 70.6067 18.9774 71.3397 18.9829C72.0727 18.9884 72.6514 19.5754 72.6597 20.3249C72.6542 21.0579 72.0507 21.6504 71.3177 21.6449C70.5846 21.6394 69.9921 21.0359 69.9977 20.3029Z" fill="white"/>
<path d="M71.2818 26.2497C70.5488 26.2442 69.9453 26.8367 69.9398 27.5697C69.9343 28.3028 70.5268 28.9063 71.2598 28.9118C71.9928 28.9173 72.5963 28.3248 72.6018 27.5918C72.6101 26.8588 72.0149 26.258 71.2818 26.2497Z" fill="white"/>
<path d="M70.0279 16.6543C70.0335 15.9213 70.637 15.3288 71.37 15.3343C72.103 15.3398 72.679 15.9433 72.69 16.6763C72.6845 17.4094 72.081 18.0018 71.3479 17.9963C70.6149 17.9908 70.0224 17.3873 70.0279 16.6543Z" fill="white"/>
<path d="M71.3976 11.6995C70.6645 11.694 70.061 12.2864 70.0555 13.0195C70.05 13.7525 70.6425 14.356 71.3755 14.3615C72.1085 14.367 72.7121 13.7745 72.7176 13.0415C72.7093 12.3085 72.1306 11.705 71.3976 11.6995Z" fill="white"/>
</svg>
