<svg width="73" height="37" viewBox="0 0 73 37" fill="none" xmlns="http://www.w3.org/2000/svg">
<path fill-rule="evenodd" clip-rule="evenodd" d="M26.7909 12.3147C25.0472 12.5708 23.6161 15.0414 23.5859 18.9996C23.5558 22.7545 24.9493 25.1158 26.6215 25.5339C24.7949 27.4659 22.2339 28.6523 19.4168 28.6297C16.4641 28.6071 13.9935 27.3793 12.1293 25.3531C13.5378 25.3644 14.8258 23.8316 14.8371 22.2197C14.856 19.866 13.4717 18.8536 12.2441 17.9558C11.2657 17.2403 10.3868 16.5976 10.3968 15.4067C10.4006 15.2071 10.4684 15.0037 10.5362 14.8041C10.5362 14.8041 10.604 14.7401 10.604 14.6723C10.7396 14.4049 11.0107 14.2053 11.3459 14.209C12.1519 14.2166 12.4155 14.8907 12.4042 16.2315L14.4831 16.2465C14.5019 14.032 13.9747 12.5519 12.2347 12.2017C14.0613 10.2018 16.6863 9.0155 19.5712 9.0381C22.1887 9.05693 25.0623 10.2207 26.7909 12.3147ZM20.3131 25.4134L22.5954 25.4322L22.6971 12.5519L20.4148 12.5331L20.3734 17.7681L17.9593 17.7492L18.0007 12.5143L15.7862 12.4954L15.6845 25.3757L17.899 25.3945L17.9442 19.8244L20.3583 19.8432L20.3131 25.4134Z" fill="white"/>
<path d="M12.6942 21.9334C12.6866 22.7394 12.2121 23.3382 11.6095 23.3344C10.6077 23.3231 9.73395 21.6171 9.69629 19.0937L9.70006 18.5552C10.1693 18.9898 10.6328 19.3238 11.0499 19.6244C11.9954 20.3057 12.702 20.8149 12.6942 21.9334Z" fill="white"/>
<path d="M25.8043 18.815C25.8231 16.6005 26.4407 14.4576 27.5819 14.4689C28.9904 14.4802 29.2992 17.8358 29.2917 18.9092C29.2729 21.1915 28.5197 23.3307 27.5141 23.3231C26.3692 23.3156 25.7854 21.0973 25.8043 18.815Z" fill="white"/>
<path d="M38.7974 12.8796L48.7966 12.9586L48.6949 25.5037L46.3485 25.4849L46.4314 14.8869L44.3525 14.8681L44.2696 25.4699L41.9873 25.451L42.0702 14.8493L40.1231 14.8342L38.6995 25.4247L36.6206 25.4096L35.6075 17.4178H35.5434L34.3383 25.3908L32.3271 25.3757L30.7491 12.8155L32.828 12.8306L33.5737 20.2198H33.6415L34.7714 12.8494L36.8541 12.8645L37.7994 20.2537L38.7974 12.8796Z" fill="white"/>
<path d="M49.8699 12.9662L52.9544 12.9926L53.911 19.4403L55.0333 13.0077L58.0538 13.0303L57.9559 25.5791L55.8732 25.5603L55.9485 16.3708L54.3328 25.549L53.0561 25.5377L51.5873 16.337L51.5195 16.3332L51.4479 25.5264L49.7682 25.5113L49.8699 12.9662Z" fill="white"/>
<path d="M64.2945 13.0792L59.1273 13.0415L59.0294 25.5866L64.3284 25.628L64.3434 23.6809L61.3229 23.6584L61.3531 20.2387L63.4998 20.2537L63.5149 18.1748L61.3681 18.156L61.3945 15.0037L64.2794 15.0263L64.2945 13.0792Z" fill="white"/>
</svg>
