<svg width="73" height="37" viewBox="0 0 73 37" fill="none" xmlns="http://www.w3.org/2000/svg">
<path d="M29.1893 20.8394C29.1742 22.9071 27.8109 24.4022 25.0653 24.6772C23.0768 24.873 20.207 24.6018 18.8399 24.4361C18.7947 24.2139 18.7608 23.939 18.7608 23.7168C18.7758 21.9128 19.7475 21.5061 20.6627 21.5136C21.6155 21.5211 23.1107 21.6981 24.218 21.7094C25.4457 21.7207 25.8186 21.3064 25.8223 20.911C25.8261 20.3913 25.3403 20.1766 24.3874 19.9845L21.785 19.4648C19.627 19.0317 18.4859 17.529 18.4972 15.9359C18.5122 14.0076 19.8906 12.3995 22.5797 12.1245C24.6134 11.9212 27.0878 12.1886 28.4436 12.3656C28.4888 12.5991 28.5151 12.8175 28.5114 13.0585C28.4963 14.8625 27.5435 15.2392 26.6283 15.2316C25.9278 15.2279 24.8394 15.0885 23.589 15.0772C22.3236 15.0659 21.7925 15.4124 21.7888 15.838C21.785 16.2899 22.2821 16.4782 23.0768 16.6251L25.5549 17.1072C28.1159 17.6005 29.2044 19.058 29.1893 20.8394ZM33.6296 23.0916C33.6221 24.1989 33.1814 24.8353 31.0196 24.8165C30.7334 24.8127 30.4849 24.7939 30.2438 24.7525L30.3606 10.0682C30.3681 8.94966 30.756 7.78968 32.9366 7.80851C33.2116 7.81228 33.4903 7.84241 33.7501 7.8989L33.6296 23.0916ZM42.4198 28.8425C42.706 28.9932 43.286 29.1702 44.0129 29.1965C45.2708 29.2342 45.9563 28.7597 46.4722 27.6374L53.3229 12.6706C53.0479 12.52 52.4303 12.3467 51.9294 12.3355C51.0594 12.3091 49.8957 12.4748 49.1424 14.2449L46.9242 19.3706L42.6985 12.3731C42.4236 12.2865 41.7494 12.1622 41.2598 12.1584C39.7458 12.1471 38.9022 12.6932 38.0134 13.6385L33.8217 18.1504L37.1246 23.4419C37.7347 24.406 38.5444 24.9031 39.8664 24.9144C40.7364 24.922 41.4557 24.7224 41.7909 24.5717L37.81 18.4705L40.6912 15.4651L45.316 22.8543L42.4198 28.8425Z" fill="white"/>
</svg>
